<?xml version="1.0" encoding="UTF-8" standalone="no"?>
<!-- Created with Inkscape (http://www.inkscape.org/) -->

<svg
   width="342"
   height="482"
   viewBox="0 0 90.487498 127.52917"
   version="1.1"
   id="svg5"
   sodipodi:docname="logo-cover.svg"
   inkscape:version="1.1 (c68e22c387, 2021-05-23)"
   xmlns:inkscape="http://www.inkscape.org/namespaces/inkscape"
   xmlns:sodipodi="http://sodipodi.sourceforge.net/DTD/sodipodi-0.dtd"
   xmlns="http://www.w3.org/2000/svg"
   xmlns:svg="http://www.w3.org/2000/svg">
  <sodipodi:namedview
     id="namedview7"
     pagecolor="#505050"
     bordercolor="#eeeeee"
     borderopacity="1"
     inkscape:pageshadow="0"
     inkscape:pageopacity="0"
     inkscape:pagecheckerboard="0"
     inkscape:document-units="px"
     showgrid="false"
     units="px"
     width="342px"
     inkscape:snap-bbox="true"
     inkscape:bbox-paths="true"
     inkscape:bbox-nodes="true"
     inkscape:snap-bbox-edge-midpoints="true"
     inkscape:snap-bbox-midpoints="true"
     inkscape:object-paths="true"
     inkscape:snap-intersection-paths="true"
     inkscape:snap-text-baseline="false"
     inkscape:snap-page="true"
     inkscape:zoom="1.4823793"
     inkscape:cx="68.471002"
     inkscape:cy="252.29709"
     inkscape:window-width="1920"
     inkscape:window-height="1018"
     inkscape:window-x="-6"
     inkscape:window-y="-6"
     inkscape:window-maximized="1"
     inkscape:current-layer="layer1"
     inkscape:snap-global="false" />
  <defs
     id="defs2" />
  <g
     inkscape:label="Calque 1"
     inkscape:groupmode="layer"
     id="layer1">
    <rect
       style="fill:#000000;stroke:none;stroke-width:0.396875;stroke-linejoin:round;stroke-miterlimit:4;stroke-dasharray:none;fill-opacity:1"
       id="rect14010"
       width="90.487503"
       height="127.52917"
       x="0"
       y="0" />
    <g
       aria-label="G-EXPORT"
       transform="matrix(-0.47824163,0,0,-3.3951701,95.225048,-26.228336)"
       id="text1250-9"
       style="font-size:39.8218px;line-height:125%;letter-spacing:0px;word-spacing:0px;fill:#001e2d;stroke-width:0.466661px">
      <path
         d="m 180.045,-27.0366 -9.709,-0.0064 -16.873,3.9414 c 0.683,0.1124 1.451,0.1908 2.309,0.2365 0.842,0.0453 1.871,0.0678 3.091,0.0678 2.871,0 6.426,-0.25 10.976,-0.7863 5.031,-0.594 11.345,-1.5422 19.755,-3.0088 10.362,-1.8071 18.983,-3.5673 24.416,-5.094 6.489,-1.8181 7.021,-2.8656 0.641,-2.8773 -4.11,-0.0075 -10.112,0.4564 -17.532,1.3363 l -9.03,2.5425 c 5.536,-0.6312 9.84,-0.9611 12.627,-0.9573 3.659,0.0051 3.511,0.5977 -0.105,1.6773 -3.226,0.9633 -8.603,2.1229 -15.454,3.3836 -6.115,1.1252 -10.79,1.8715 -14.495,2.3373 -3.437,0.4301 -6.135,0.6338 -8.273,0.6336 -1.079,-2e-4 -2.037,-0.0423 -2.882,-0.1275 l 8.883,-1.946 4.976,0.0022 z"
         style="font-weight:600;font-size:29.8663px;font-family:'Open Sans';-inkscape-font-specification:'Open Sans, Semi-Bold'"
         id="path17028" />
      <path
         d="m 157.577,-24.8979 4.674,-1.1672 -8.713,-0.0045 -3.954,1.1691 z"
         style="font-weight:600;font-size:29.8663px;font-family:'Open Sans';-inkscape-font-specification:'Open Sans, Semi-Bold'"
         id="path17030" />
      <path
         d="m 128.338,-22.873 10.892,10e-5 34.956,-11.4213 -22.267,-0.0397 -5.845,2.8406 13.848,0.0186 -10.793,3.8949 -10.391,-0.0077 -2.996,1.4252 9.446,0.0049 -6.795,2.4519 -8.34,-0.0012 z"
         style="font-weight:600;font-size:29.8663px;font-family:'Open Sans';-inkscape-font-specification:'Open Sans, Semi-Bold'"
         id="path17032" />
      <path
         d="m 109.909,-22.8732 h 3.647 l 8.151,-2.8926 1.575,2.8927 3.38,10e-5 -1.226,-3.9466 22.211,-7.5219 -7.204,-0.0129 -16.404,6.377 -1.977,-6.4097 -7.043,-0.0126 5.179,7.6053 z"
         style="font-weight:600;font-size:29.8663px;font-family:'Open Sans';-inkscape-font-specification:'Open Sans, Semi-Bold'"
         id="path17034" />
      <path
         d="m 87.8982,-28.9848 c 1.4061,1.3185 3.2513,2.1986 5.5548,2.7548 2.1354,0.5156 4.6692,0.7602 7.714,0.7614 l 2.504,0.0011 0.448,2.5942 h 3.175 l 1.379,-11.5377 -11.5477,-0.0205 c -5.023,-0.009 -8.3184,0.5787 -9.7631,1.6742 -1.3232,0.9912 -1.0419,2.293 0.536,3.7725 z m 15.5488,2.2226 -2.293,-0.0014 c -2.2173,-0.0014 -3.9344,-0.1547 -5.1896,-0.4698 -1.3097,-0.3289 -2.271,-0.8713 -2.8833,-1.672 -0.6243,-0.8165 -0.5522,-1.4782 0.2935,-1.9415 0.8892,-0.487 2.6554,-0.7384 5.262,-0.7349 l 3.9784,0.0054 z"
         style="font-weight:600;font-size:29.8663px;font-family:'Open Sans';-inkscape-font-specification:'Open Sans, Semi-Bold'"
         id="path17036" />
      <path
         d="m 61.6331,-26.6818 c 4.5351,1.4994 8.3668,2.4689 11.8714,3.0777 3.1609,0.5507 6.0806,0.8068 8.9781,0.8068 2.9304,0 4.7515,-0.253 5.5177,-0.7963 0.8307,-0.6024 0.4161,-1.5733 -1.6081,-3.0875 -2.5509,-1.9084 -6.3554,-3.75 -11.4545,-5.301 -6.0581,-1.8373 -12.6414,-2.895 -18.8798,-2.9065 -6.1557,-0.0113 -8.0786,1.0495 -6.0559,2.9104 1.7057,1.5692 5.9124,3.4057 11.6311,5.2964 z m 20.1981,0.0119 c 1.9107,1.1587 2.6017,1.9229 2.3083,2.3968 -0.2781,0.4369 -1.4302,0.6439 -3.4718,0.6436 -2.0333,-3e-4 -4.0784,-0.2063 -6.2481,-0.6409 -2.3466,-0.468 -4.9961,-1.2348 -8.1785,-2.4087 -3.7283,-1.3752 -6.2883,-2.6025 -7.1991,-3.5509 -1.0322,-1.0584 0.149,-1.6325 3.6331,-1.6277 3.5131,0.0049 7.2453,0.5847 10.8722,1.6441 3.2337,0.9486 6.0235,2.173 8.2839,3.5437 z"
         style="font-weight:600;font-size:29.8663px;font-family:'Open Sans';-inkscape-font-specification:'Open Sans, Semi-Bold'"
         id="path17038" />
      <path
         d="m 50.2698,-27.0406 -3.0976,-0.002 c -2.0792,-0.0013 -4.2265,-0.1564 -6.5111,-0.4751 -2.3829,-0.3323 -5.1124,-0.852 -8.3148,-1.5954 -3.5678,-0.8283 -5.724,-1.4733 -6.2188,-1.8867 -0.5172,-0.432 0.5455,-0.6537 3.2045,-0.6501 l 3.8622,0.0052 z m 4.9348,1.3306 10.5188,2.8363 h 3.2124 L 29.0762,-34.5528 17.4699,-34.5734 c -5.3156,-0.0095 -6.7712,0.5572 -4.5342,1.6176 2.032,0.9633 6.9049,2.2636 13.8112,3.7608 7.3523,1.5939 13.5331,2.5612 19.1956,3.084 l 8.2224,3.2371 3.6686,10e-5 -6.6404,-2.838 z"
         style="font-weight:600;font-size:29.8663px;font-family:'Open Sans';-inkscape-font-specification:'Open Sans, Semi-Bold'"
         id="path17040" />
      <path
         d="m 44.4745,-22.874 h 3.2333 l -47.110916,-8.7768 10.572016,0.0141 -14.37062,-2.9736 -31.27958,-0.0557 18.5627,2.9931 10.62476,0.0142 z"
         style="font-weight:600;font-size:29.8663px;font-family:'Open Sans';-inkscape-font-specification:'Open Sans, Semi-Bold'"
         id="path17042" />
    </g>
    <g
       aria-label="G-EXPORT"
       transform="scale(0.77063612,1.2976293)"
       id="text1250"
       style="font-size:22.6934px;line-height:125%;letter-spacing:0px;word-spacing:0px;fill:#ffffff;stroke-width:0.265937px">
      <path
         d="m 23.984794,32.984658 h 4.471048 v 6.099905 q -1.096986,0.357352 -2.110867,0.506941 -1.00557,0.149588 -2.17735,0.149588 -2.759086,0 -4.254975,-1.628857 -1.49589,-1.637168 -1.49589,-4.612326 0,-2.933606 1.687031,-4.587395 1.687031,-1.6621 4.645569,-1.6621 1.903104,0 3.606756,0.731324 l -0.698082,1.653789 q -1.479269,-0.681461 -2.958537,-0.681461 -1.944657,0 -3.074885,1.221644 -1.130227,1.221643 -1.130227,3.34082 0,2.227213 1.01388,3.390683 1.022192,1.155159 2.933606,1.155159 0.964018,0 2.061004,-0.241005 V 34.68831 h -2.518081 z"
         style="font-weight:600;font-size:17.0199px;font-family:'Open Sans';-inkscape-font-specification:'Open Sans, Semi-Bold'"
         id="path18087" />
      <path
         d="m 30.367256,35.843469 v -1.6621 h 4.271596 v 1.6621 z"
         style="font-weight:600;font-size:17.0199px;font-family:'Open Sans';-inkscape-font-specification:'Open Sans, Semi-Bold'"
         id="path18089" />
      <path
         d="M 43.722225,39.574883 H 36.849444 V 27.424935 h 6.872781 v 1.67872 h -4.886572 v 3.307578 h 4.579084 v 1.6621 h -4.579084 v 3.814518 h 4.886572 z"
         style="font-weight:600;font-size:17.0199px;font-family:'Open Sans';-inkscape-font-specification:'Open Sans, Semi-Bold'"
         id="path18091" />
      <path
         d="m 55.298747,39.574883 h -2.285386 l -3.041643,-4.969678 -3.066573,4.969678 h -2.127488 l 4.030592,-6.299358 -3.772966,-5.85059 h 2.210592 l 2.808948,4.595705 2.808949,-4.595705 h 2.144108 l -3.797897,5.883832 z"
         style="font-weight:600;font-size:17.0199px;font-family:'Open Sans';-inkscape-font-specification:'Open Sans, Semi-Bold'"
         id="path18093" />
      <path
         d="m 64.980477,31.098175 q 0,1.903104 -1.246574,2.916985 -1.246575,1.01388 -3.548583,1.01388 h -1.263196 v 4.545843 H 56.935915 V 27.424935 h 3.49872 q 2.277076,0 3.407304,0.930776 1.138538,0.930775 1.138538,2.742464 z m -6.058353,2.260455 h 1.055434 q 1.529131,0 2.243834,-0.531872 0.714703,-0.531872 0.714703,-1.662099 0,-1.047123 -0.639909,-1.562374 -0.639908,-0.515251 -1.994519,-0.515251 h -1.379543 z"
         style="font-weight:600;font-size:17.0199px;font-family:'Open Sans';-inkscape-font-specification:'Open Sans, Semi-Bold'"
         id="path18095" />
      <path
         d="m 78.194171,33.483288 q 0,2.966847 -1.487579,4.612326 -1.479269,1.645478 -4.196801,1.645478 -2.750775,0 -4.230044,-1.628857 -1.470958,-1.637168 -1.470958,-4.645568 0,-3.008401 1.479269,-4.620637 1.487579,-1.612237 4.238354,-1.612237 2.709222,0 4.18849,1.637168 1.479269,1.637168 1.479269,4.612327 z m -9.274516,0 q 0,2.243834 0.905845,3.407304 0.905844,1.155159 2.684291,1.155159 1.770136,0 2.667669,-1.146849 0.905845,-1.146848 0.905845,-3.415614 0,-2.235524 -0.897534,-3.390683 -0.889223,-1.15516 -2.659359,-1.15516 -1.786758,0 -2.700912,1.15516 -0.905845,1.155159 -0.905845,3.390683 z"
         style="font-weight:600;font-size:17.0199px;font-family:'Open Sans';-inkscape-font-specification:'Open Sans, Semi-Bold'"
         id="path18097" />
      <path
         d="m 82.789876,33.076073 h 1.379543 q 1.387853,0 2.01114,-0.515251 0.623288,-0.51525 0.623288,-1.529131 0,-1.030502 -0.673151,-1.479269 -0.67315,-0.448767 -2.027761,-0.448767 h -1.313059 z m 0,1.645479 v 4.853331 H 80.803667 V 27.424935 h 3.432236 q 2.351871,0 3.482099,0.880913 1.130227,0.880912 1.130227,2.659359 0,2.268766 -2.360181,3.232783 l 3.432235,5.376893 h -2.260455 l -2.908674,-4.853331 z"
         style="font-weight:600;font-size:17.0199px;font-family:'Open Sans';-inkscape-font-specification:'Open Sans, Semi-Bold'"
         id="path18099" />
      <path
         d="M 95.87891,39.574883 H 93.892701 V 29.128587 h -3.573514 v -1.703652 h 9.133237 v 1.703652 H 95.87891 Z"
         style="font-weight:600;font-size:17.0199px;font-family:'Open Sans';-inkscape-font-specification:'Open Sans, Semi-Bold'"
         id="path18101" />
    </g>
  </g>
</svg>
