<?xml version="1.0" encoding="UTF-8"?>
<svg xmlns="http://www.w3.org/2000/svg" xmlns:xlink="http://www.w3.org/1999/xlink" viewBox="0 0 50 50" width="50px" height="50px">
<g id="surface134802012">
<path style=" stroke:none;fill-rule:nonzero;fill:rgb(0%,0%,0%);fill-opacity:1;" d="M 25 2 C 12.316406 2 2 12.316406 2 25 C 2 37.683594 12.316406 48 25 48 C 37.683594 48 48 37.683594 48 25 C 48 12.316406 37.683594 2 25 2 Z M 11.597656 13 L 17.398438 13 C 18.285156 13 19 13.714844 19 14.597656 L 19 24.398438 C 19 25.285156 18.285156 26 17.398438 26 L 10 26 L 10 24 L 16.398438 24 C 16.730469 24 17 23.730469 17 23.398438 L 17 15.597656 C 17 15.269531 16.730469 15 16.398438 15 L 12.597656 15 C 12.269531 15 12 15.269531 12 15.597656 L 12 19.398438 C 12 19.730469 12.269531 20 12.597656 20 L 15.5 20 L 15.5 22 L 11.597656 22 C 10.714844 22 10 21.285156 10 20.398438 L 10 14.597656 C 10 13.714844 10.714844 13 11.597656 13 Z M 22.097656 13 L 27.898438 13 C 28.78125 13 29.5 13.71875 29.5 14.597656 L 29.5 20.398438 C 29.5 21.28125 28.78125 22 27.898438 22 L 22.097656 22 C 21.21875 22 20.5 21.28125 20.5 20.398438 L 20.5 14.597656 C 20.5 13.71875 21.21875 13 22.097656 13 Z M 32.597656 13 L 38.398438 13 C 39.285156 13 40 13.714844 40 14.597656 L 40 24.398438 C 40 25.285156 39.285156 26 38.398438 26 L 31 26 L 31 24 L 37.398438 24 C 37.730469 24 38 23.730469 38 23.398438 L 38 15.597656 C 38 15.269531 37.730469 15 37.398438 15 L 33.597656 15 C 33.269531 15 33 15.269531 33 15.597656 L 33 19.398438 C 33 19.730469 33.269531 20 33.597656 20 L 36.5 20 L 36.5 22 L 32.597656 22 C 31.714844 22 31 21.285156 31 20.398438 L 31 14.597656 C 31 13.714844 31.714844 13 32.597656 13 Z M 23.097656 15 C 22.769531 15 22.5 15.269531 22.5 15.597656 L 22.5 19.398438 C 22.5 19.730469 22.769531 20 23.097656 20 L 26.898438 20 C 27.230469 20 27.5 19.730469 27.5 19.398438 L 27.5 15.597656 C 27.5 15.269531 27.230469 15 26.898438 15 Z M 11.597656 28 L 17.5 28 L 17.5 30 L 12.597656 30 C 12.269531 30 12 30.269531 12 30.597656 L 12 34.398438 C 12 34.730469 12.269531 35 12.597656 35 L 17.5 35 L 17.5 37 L 11.597656 37 C 10.714844 37 10 36.285156 10 35.398438 L 10 29.597656 C 10 28.714844 10.714844 28 11.597656 28 Z M 20.597656 28 L 26.398438 28 C 27.28125 28 28 28.71875 28 29.597656 L 28 35.398438 C 28 36.28125 27.28125 37 26.398438 37 L 20.597656 37 C 19.71875 37 19 36.28125 19 35.398438 L 19 29.597656 C 19 28.71875 19.71875 28 20.597656 28 Z M 31.097656 28 L 40 28 L 40 37 L 38 37 L 38 30 L 36.347656 30 C 36.019531 30 35.75 30.269531 35.75 30.597656 L 35.75 37 L 33.75 37 L 33.75 30 L 32.097656 30 C 31.769531 30 31.5 30.269531 31.5 30.597656 L 31.5 37 L 29.5 37 L 29.5 29.597656 C 29.5 28.714844 30.214844 28 31.097656 28 Z M 21.597656 30 C 21.269531 30 21 30.269531 21 30.597656 L 21 34.398438 C 21 34.730469 21.269531 35 21.597656 35 L 25.398438 35 C 25.730469 35 26 34.730469 26 34.398438 L 26 30.597656 C 26 30.269531 25.730469 30 25.398438 30 Z M 21.597656 30 "/>
</g>
</svg>
