<svg fill="#000000" xmlns="http://www.w3.org/2000/svg"  viewBox="0 0 50 50" width="50px" height="50px"><path d="M 25 6 C 24.675781 6 24.339844 6.011719 23.988281 6.03125 C 24.445313 4.125 25.746094 2.277344 25.761719 2.253906 L 25.847656 2.113281 C 26.136719 1.523438 26.007813 0.835938 25.527344 0.394531 C 25.039063 -0.0546875 24.324219 -0.125 23.75 0.21875 C 23.472656 0.386719 23.171875 0.5625 22.859375 0.742188 C 19.226563 2.855469 13.738281 6.050781 8.644531 15.351563 L 8.441406 15.726563 L 8.441406 15.734375 C 7.757813 17.078125 6 20.914063 6 25 C 6 35.476563 14.523438 44 25 44 C 25.328125 44 25.664063 43.988281 26.011719 43.96875 C 25.554688 45.875 24.253906 47.722656 24.238281 47.746094 L 24.152344 47.886719 C 23.863281 48.472656 23.992188 49.164063 24.472656 49.605469 C 24.753906 49.863281 25.109375 49.996094 25.472656 49.996094 C 25.738281 49.996094 26.007813 49.925781 26.25 49.78125 C 26.527344 49.613281 26.828125 49.4375 27.140625 49.257813 C 30.769531 47.144531 36.257813 43.953125 41.351563 34.660156 C 41.632813 34.175781 44 29.964844 44 25 C 44 14.523438 35.476563 6 25 6 Z M 25 32 C 21.132813 32 18 28.867188 18 25 C 18 21.132813 21.132813 18 25 18 C 28.867188 18 32 21.132813 32 25 C 32 28.867188 28.867188 32 25 32 Z"/></svg>