<svg fill="#000000" xmlns="http://www.w3.org/2000/svg"  viewBox="0 0 50 50" width="50px" height="50px"><path d="M 19.5 0 C 17.570313 0 16 1.570313 16 3.5 C 16 5.429688 17.570313 7 19.5 7 C 21.429688 7 23 5.429688 23 3.5 C 23 1.570313 21.429688 0 19.5 0 Z M 7.59375 2 C 3.261719 2 0 5.550781 0 10.25 C 0 14.527344 4.402344 16.5 7.375 16.5 C 10.441406 16.5 15 14.429688 15 8.65625 C 15 3.398438 10.152344 2 7.59375 2 Z M 31.3125 5.03125 C 18.890625 5.03125 8.8125 16.082031 8.8125 29.65625 C 8.8125 41.664063 23.785156 49 31.9375 49 C 40.46875 49 50 38.972656 50 25.53125 C 50 12.53125 35.816406 5.03125 31.3125 5.03125 Z M 18 19 L 23 19 L 23 30.5 C 23 31.328125 23.671875 32 24.5 32 L 33.5 32 C 34.328125 32 35 31.328125 35 30.5 L 35 19 L 40 19 L 40 37 L 24.5 37 C 20.910156 37 18 34.089844 18 30.5 Z"/></svg>