<svg xmlns="http://www.w3.org/2000/svg"  viewBox="0 0 32 32" width="32px" height="32px"><path d="M15.217,3C7.145,3,3.661,10.184,3.661,10.184l1.026,0.734c0,0-1.291,2.454-1.255,5.602C3.432,22.947,8.547,29,16.077,29	c6.841,0,12.492-5.568,12.492-12.464C28.569,7.543,21.595,3,15.217,3L15.217,3z M15.287,5.192c6.306,0,11.2,5.082,11.2,10.99	c0,6.263-4.71,10.618-10.199,10.618c-4.04,0-7.684-3.076-7.684-7.294c0-2.436,1.295-4.134,2.746-5.04l0.212,0.23	c-0.397,0.311-1.529,2.129-1.529,3.917c0,3.318,2.602,5.617,5.881,5.617c4.177,0,6.962-3.562,6.962-7.698	c0-4.812-4.248-8.898-9.36-8.898c-2.827,0-5.227,1.216-6.606,2.289L6.695,9.729C8.499,6.948,11.623,5.192,15.287,5.192z M13.405,9.796c3.262,0,6.447,2.158,7.242,5.221l-0.289,0.11c-1.427-1.885-3.766-3.447-6.528-3.447	c-5.082,0-7.751,4.618-7.359,8.475l-0.299,0.11c0,0-0.561-1.239-0.561-2.707C5.609,13.304,9.102,9.796,13.405,9.796L13.405,9.796z M15.561,15.134c1.544,0,2.78,1.252,2.78,2.738c0,1.23-0.79,1.958-0.79,1.958l0.935,0.654c0,0-0.927,1.456-2.82,1.456	c-1.811,0-3.412-1.461-3.412-3.427C12.254,16.488,13.996,15.134,15.561,15.134L15.561,15.134z"/></svg>